<svg width="297.39821166992186px" height="121.33334045410156px" xmlns="http://www.w3.org/2000/svg" viewBox="101.30089416503907 14.33332977294922 297.39821166992186 121.33334045410156" style="background:#051103" preserveAspectRatio="xMidYMid"><defs><linearGradient id="editing-glowing-gradient" x1="0.8146601955249186" x2="0.18533980447508142" y1="0.8885729807284856" y2="0.11142701927151444"><stop offset="0" stop-color="#67ff"></stop><stop offset="1" stop-color="#67ff"></stop></linearGradient><filter id="editing-glowing" x="-100%" y="-100%" width="300%" height="300%"><feGaussianBlur in="SourceGraphic" result="blur" stdDeviation="10"></feGaussianBlur><feMerge><feMergeNode in="blur"></feMergeNode><feMergeNode in="SourceGraphic"></feMergeNode></feMerge></filter></defs><g filter="url(#editing-glowing)"><g transform="translate(148.71510934829712, 107)"><path d="M6.21-31.17L6.21-31.17L6.21-31.17Q4.03-32.83 4.03-36.38L4.03-36.38L4.03-36.38Q4.03-39.94 6.37-41.79L6.37-41.79L6.37-41.79Q8.70-43.65 12.74-43.65L12.74-43.65L12.74-43.65Q15.30-43.65 21.38-42.75L21.38-42.75L25.73-42.11L25.73-42.11Q27.90-41.86 30.18-41.86L30.18-41.86L30.18-41.86Q32.45-41.86 33.98-42.82L33.98-42.82L33.98-42.82Q36.29-40.77 36.29-37.82L36.29-37.82L36.29-37.82Q36.29-34.88 33.66-32.77L33.66-32.77L33.66-32.77Q30.98-30.53 27.52-30.53L27.52-30.53L27.52-30.53Q25.86-30.53 23.17-30.98L23.17-30.98L23.17-30.98Q20.03-21.12 20.03-14.27L20.03-14.27L20.03-14.27Q20.03-7.42 23.49-3.84L23.49-3.84L23.49-3.84Q21.89-0.96 19.52 0.16L19.52 0.16L19.52 0.16Q17.15 1.28 13.60 1.28L13.60 1.28L13.60 1.28Q10.05 1.28 7.84-0.67L7.84-0.67L7.84-0.67Q5.63-2.62 5.63-6.66L5.63-6.66L5.63-6.66Q5.63-11.33 8.19-19.01L8.19-19.01L8.19-19.01Q10.75-26.62 14.59-32.45L14.59-32.45L14.59-32.45Q12.74-32.64 10.82-32.64L10.82-32.64L10.82-32.64Q6.85-32.64 6.21-31.17ZM52.99 12.80L43.65 12.80L56.13-51.20L65.22-51.20L52.99 12.80ZM102.59-42.69L102.59-42.69L102.59-42.69Q118.27-42.69 118.27-31.62L118.27-31.62L118.27-31.62Q118.27-25.54 114.37-21.89L114.37-21.89L114.37-21.89Q110.53-18.24 103.81-18.24L103.81-18.24L103.81-18.24Q100.67-18.24 98.24-20.03L98.24-20.03L98.24-20.03Q97.09-20.80 96.32-21.82L96.32-21.82L96.32-21.82Q100.99-21.82 103.46-24.67L103.46-24.67L103.46-24.67Q105.92-27.52 105.92-33.09L105.92-33.09L105.92-33.09Q105.92-38.66 100.42-38.66L100.42-38.66L98.88-38.66L98.88-38.66Q98.50-38.66 98.18-38.59L98.18-38.59L90.82 0L76.93 0L84.80-41.92L84.80-41.92Q91.65-42.56 95.62-42.62L95.62-42.62L95.62-42.62Q99.58-42.69 102.59-42.69ZM137.34 12.80L128.00 12.80L140.48-51.20L149.57-51.20L137.34 12.80ZM168.00 0L171.71-18.82L171.71-18.82Q169.86-36.16 163.33-39.87L163.33-39.87L163.33-39.87Q164.67-41.54 166.85-42.46L166.85-42.46L166.85-42.46Q169.02-43.39 171.65-43.39L171.65-43.39L171.65-43.39Q174.27-43.39 176.26-42.46L176.26-42.46L176.26-42.46Q178.24-41.54 179.52-39.55L179.52-39.55L179.52-39.55Q181.95-35.78 181.95-26.75L181.95-26.75L181.95-22.14L181.95-22.14Q185.79-33.41 189.63-38.27L189.63-38.27L189.63-38.27Q193.54-43.26 198.40-43.26L198.40-43.26L198.40-43.26Q200.32-43.26 201.60-42.27L201.60-42.27L201.60-42.27Q202.88-41.28 203.52-39.81L203.52-39.81L203.52-39.81Q198.59-37.63 193.86-31.36L193.86-31.36L193.86-31.36Q189.12-25.09 186.05-16.32L186.05-16.32L182.27 0L168.00 0Z" fill="url(#editing-glowing-gradient)"></path></g></g><style>text {
  font-size: 64px;
  font-family: Arial Black;
  dominant-baseline: central;
  text-anchor: middle;
}</style></svg>